HIERARCHY
ROOT SpineBase
{
  OFFSET 0.000000 0.000000 0.000000
  CHANNELS 6 Xposition Yposition Zposition Zrotation Xrotation Yrotation
  JOINT SpineMid
  {
    OFFSET 0.000000 30.602111 0.000000
    CHANNELS 3 Zrotation Xrotation Yrotation
    JOINT SpineShoulder
    {
      OFFSET -0.024837 22.803546 -0.709013
      CHANNELS 3 Zrotation Xrotation Yrotation
      JOINT Neck
      {
        OFFSET -0.064541 7.587686 -0.547988
        CHANNELS 3 Zrotation Xrotation Yrotation
        JOINT Head
        {
          OFFSET 4.016153 12.778237 -1.513149
          CHANNELS 3 Zrotation Xrotation Yrotation
          End Site
          {
            OFFSET 0 0 0
          }
        }
      }
      JOINT ShoulderLeft
      {
        OFFSET -14.694283 -0.384809 -6.517789
        CHANNELS 3 Zrotation Xrotation Yrotation
        JOINT ElbowLeft
        {
          OFFSET -5.356116 -24.809632 -0.984085
          CHANNELS 3 Zrotation Xrotation Yrotation
          JOINT WristLeft
          {
            OFFSET -0.886563 -23.695193 -5.422421
            CHANNELS 3 Zrotation Xrotation Yrotation
            JOINT HandLeft
            {
              OFFSET 1.308905 -5.415704 -0.336413
              CHANNELS 3 Zrotation Xrotation Yrotation
              JOINT HandTipLeft
              {
                OFFSET -0.225840 -7.031883 -0.345707
                CHANNELS 3 Zrotation Xrotation Yrotation
                End Site
                {
                  OFFSET 0 0 0
                }
              }
              JOINT ThumbLeft
              {
                OFFSET 2.212861 -0.686493 -2.910222
                CHANNELS 3 Zrotation Xrotation Yrotation
                End Site
                {
                  OFFSET 0 0 0
                }
              }
            }
          }
        }
      }
      JOINT ShoulderRight
      {
        OFFSET 17.044796 -4.388526 6.443153
        CHANNELS 3 Zrotation Xrotation Yrotation
        JOINT ElbowRight
        {
          OFFSET 1.586052 -24.860695 2.697641
          CHANNELS 3 Zrotation Xrotation Yrotation
          JOINT WristRight
          {
            OFFSET -0.258367 -23.263707 -6.110756
            CHANNELS 3 Zrotation Xrotation Yrotation
            JOINT HandRight
            {
              OFFSET -0.762476 -6.687393 -1.014521
              CHANNELS 3 Zrotation Xrotation Yrotation
              JOINT HandTipRight
              {
                OFFSET -0.068996 -5.470087 -1.325808
                CHANNELS 3 Zrotation Xrotation Yrotation
                End Site
                {
                  OFFSET 0 0 0
                }
              }
              JOINT ThumbRight
              {
                OFFSET -3.624614 1.438548 -3.288035
                CHANNELS 3 Zrotation Xrotation Yrotation
                End Site
                {
                  OFFSET 0 0 0
                }
              }
            }
          }
        }
      }
    }
  }
  JOINT HipLeft
  {
    OFFSET -7.814881 1.692386 -6.112224
    CHANNELS 3 Zrotation Xrotation Yrotation
    JOINT KneeLeft
    {
      OFFSET -7.749444 -29.485252 2.517974
      CHANNELS 3 Zrotation Xrotation Yrotation
      JOINT AnkleLeft
      {
        OFFSET -1.336899 -32.423149 8.969091
        CHANNELS 3 Zrotation Xrotation Yrotation
        JOINT FootLeft
        {
          OFFSET 4.804009 -6.136600 -4.919409
          CHANNELS 3 Zrotation Xrotation Yrotation
          End Site
          {
            OFFSET 0 0 0
          }
        }
      }
    }
  }
  JOINT HipRight
  {
    OFFSET 6.768392 0.183556 -0.416514
    CHANNELS 3 Zrotation Xrotation Yrotation
    JOINT KneeRight
    {
      OFFSET -3.102559 -30.916518 3.804491
      CHANNELS 3 Zrotation Xrotation Yrotation
      JOINT AnkleRight
      {
        OFFSET -7.654600 -30.892582 6.087663
        CHANNELS 3 Zrotation Xrotation Yrotation
        JOINT FootRight
        {
          OFFSET 3.211054 -3.864536 -12.150583
          CHANNELS 3 Zrotation Xrotation Yrotation
          End Site
          {
            OFFSET 0 0 0
          }
        }
      }
    }
  }
}
MOTION
Frames: 14
Frame Time: 0.033333
59.955185 74.722144 363.910913 -0.000000 0.000000 -21.333855 0.000000 0.000000 21.333855 -0.000000 0.000000 0.000000 -0.000000 0.000000 0.000000 0.000000 0.000000 0.000000 -0.000000 0.000000 0.000000 -0.000000 0.000000 0.000000 -0.000000 0.000000 0.000000 -0.000000 0.000000 0.000000 0.000000 0.000000 0.000000 0.000000 0.000000 0.000000 -0.000000 0.000000 0.000000 -0.000000 0.000000 0.000000 -0.000000 0.000000 0.000000 -0.000000 0.000000 0.000000 0.000000 0.000000 0.000000 0.000000 0.000000 0.000000 0.000000 0.000000 21.333855 -0.000000 0.000000 0.000000 -0.000000 0.000000 0.000000 0.000000 0.000000 0.000000 0.000000 0.000000 21.333855 -0.000000 0.000000 0.000000 -0.000000 0.000000 0.000000 0.000000 0.000000 0.000000
60.009340 74.718005 363.851047 -0.060556 0.054013 -21.587656 0.076181 -0.027945 21.587703 -0.000000 0.000000 0.000000 -0.000000 0.000000 0.000000 0.000000 0.000000 0.000000 -0.000000 0.000000 0.000000 -0.000000 0.000000 0.000000 0.983320 0.152196 -0.025551 0.758248 -1.323247 -0.002636 0.000000 0.000000 0.000000 0.000000 0.000000 0.000000 -0.000000 0.000000 0.000000 -0.000000 0.000000 0.000000 1.513772 -1.667983 -0.017499 -3.131266 2.769297 0.500333 0.000000 0.000000 0.000000 0.000000 0.000000 0.000000 0.076181 -0.027945 21.587703 -0.000000 0.000000 0.000000 -1.964710 -1.056683 0.745307 0.000000 0.000000 0.000000 0.076181 -0.027945 21.587703 -0.000000 0.000000 0.000000 -0.000000 0.000000 0.000000 0.000000 0.000000 0.000000
60.064313 74.713369 363.795850 -0.107173 0.102709 -21.828311 0.137679 -0.055495 21.828474 -0.000000 0.000000 0.000000 -0.000000 0.000000 0.000000 0.000000 0.000000 0.000000 -0.000000 0.000000 0.000000 1.436130 0.045642 -0.331066 0.235690 0.339053 0.314388 1.581008 -2.530813 -0.002584 0.000000 0.000000 0.000000 0.000000 0.000000 0.000000 0.122536 0.859957 0.067291 -0.276414 -2.259495 -0.017892 2.998281 -1.777583 -0.118743 -5.865608 5.146213 1.065537 0.000000 0.000000 0.000000 0.000000 0.000000 0.000000 0.137679 -0.055495 21.828474 -0.000000 0.000000 0.000000 -3.437753 -2.514194 0.743226 0.000000 0.000000 0.000000 0.137679 -0.055495 21.828474 -0.000000 0.000000 0.000000 -0.000000 0.000000 0.000000 0.000000 0.000000 0.000000
60.120104 74.708235 363.745322 -0.139898 0.146109 -22.055738 0.184525 -0.082883 22.056050 -0.000000 0.000000 0.000000 -0.000000 0.000000 0.000000 0.000000 0.000000 0.000000 0.543336 0.659768 -0.167251 1.500004 -0.534803 -0.289670 -0.020282 0.563576 0.501357 2.493632 -3.600063 -0.011073 0.000000 0.000000 0.000000 0.000000 0.000000 0.000000 0.211185 1.147953 0.094130 -0.393804 -3.127031 -0.036307 4.153609 -2.514886 -0.146384 -8.159189 7.096095 1.629813 0.000000 0.000000 0.000000 0.000000 0.000000 0.000000 0.184525 -0.082883 22.056050 -0.790331 0.354817 -0.230945 -3.670745 -4.755248 0.192205 0.000000 0.000000 0.000000 0.184525 -0.082883 22.056050 -0.000000 0.000000 0.000000 -0.000000 0.000000 0.000000 0.000000 0.000000 0.000000
60.176713 74.702604 363.699463 -0.158773 0.184234 -22.269862 0.216750 -0.110321 22.270326 -0.000000 0.000000 0.000000 -0.000000 0.000000 0.000000 0.000000 0.000000 0.000000 0.696750 0.839184 -0.214132 1.890972 -0.600539 -0.364144 -0.564248 0.800388 0.709380 3.490643 -4.504209 -0.035922 0.000000 0.000000 0.000000 0.000000 0.000000 0.000000 0.318241 1.341561 0.116526 -0.497214 -3.820183 -0.059206 5.048694 -3.115012 -0.154760 -9.970062 8.596331 2.131922 0.000000 0.000000 0.000000 0.000000 0.000000 0.000000 0.216750 -0.110321 22.270326 -0.923615 0.405455 -0.269125 -4.187413 -7.146810 -1.336093 0.000000 0.000000 0.000000 0.216750 -0.110321 22.270326 -0.000000 0.000000 0.000000 -0.000000 0.000000 0.000000 0.000000 0.000000 0.000000
60.234139 74.696475 363.658273 -0.163837 0.217104 -22.470617 0.234378 -0.137999 22.471210 -0.000000 0.000000 0.000000 -0.000000 0.000000 0.000000 0.000000 0.000000 0.000000 0.836261 0.998447 -0.256332 2.241183 -0.607462 -0.433219 -1.379162 1.024025 0.934532 4.535246 -5.214260 -0.082084 0.000000 0.000000 0.000000 0.000000 0.000000 0.000000 0.443805 1.440915 0.134659 -0.586608 -4.339375 -0.085662 5.665628 -3.556373 -0.146032 -11.261595 9.633515 2.519325 0.000000 0.000000 0.000000 0.000000 0.000000 0.000000 0.234378 -0.137999 22.471210 -0.988187 0.420295 -0.287259 -4.448772 -10.044902 -3.760937 0.000000 0.000000 0.000000 0.234378 -0.137999 22.471210 -0.845770 0.196445 -0.213576 1.103395 -0.317973 -0.694462 0.000000 0.000000 0.000000
60.291038 74.688166 363.616299 -0.145616 0.251860 -22.657814 0.231401 -0.176326 22.658490 -0.000000 0.000000 0.000000 -0.000000 0.000000 0.000000 0.000000 0.000000 0.000000 0.927873 1.195514 -0.305000 2.706319 -0.701329 -0.503236 -3.332385 1.668302 1.339249 7.349835 -7.209981 -0.103617 0.000000 0.000000 0.000000 0.000000 0.000000 0.000000 0.699741 1.303844 0.151281 -0.714834 -4.488229 -0.131590 5.698228 -4.032659 -0.037346 -11.812445 8.654007 2.672698 0.000000 0.000000 0.000000 0.000000 0.000000 0.000000 0.231401 -0.176326 22.658490 -0.831838 0.298317 -0.240348 -6.479218 -22.396123 -16.065157 0.000000 0.000000 0.000000 0.231401 -0.176326 22.658490 -0.911097 0.208461 -0.229169 1.211947 -0.351259 -0.832180 0.000000 0.000000 0.000000
60.334039 74.690974 363.580259 -0.129421 0.282697 -22.830409 0.228971 -0.210332 22.831148 -0.000000 0.000000 0.000000 -0.000000 0.000000 0.000000 0.000000 0.000000 0.000000 1.008399 1.343550 -0.342384 3.028888 -0.533353 -0.567852 -4.635990 1.705876 1.584744 7.898917 -6.122421 -0.337070 0.000000 0.000000 0.000000 0.000000 0.000000 0.000000 0.849993 1.179724 0.158852 -0.660308 -4.620178 -0.181875 5.506009 -3.805512 -0.001404 -12.189189 9.299235 2.835552 0.000000 0.000000 0.000000 0.000000 0.000000 0.000000 0.075321 -1.052105 22.977474 -0.385478 1.028095 -0.387736 -6.473318 -23.923317 -17.935364 0.000000 0.000000 0.000000 0.228971 -0.210332 22.831148 -0.939204 0.209329 -0.234842 1.285150 -0.376099 -0.988428 0.000000 0.000000 0.000000
60.398758 74.685160 363.556857 -0.095268 0.297427 -22.991545 0.203875 -0.236588 22.992213 -0.000000 0.000000 0.000000 -0.371512 0.674039 -0.253576 0.000000 0.000000 0.000000 1.074828 1.378146 -0.353649 3.299356 -0.110221 -0.662075 -5.514484 0.901046 1.605701 6.577967 -4.146491 -0.496506 0.000000 0.000000 0.000000 0.000000 0.000000 0.000000 0.960052 1.096337 0.165021 -0.695540 -4.778598 -0.202300 5.213084 -3.636262 0.040521 -12.682362 9.003916 3.052001 0.000000 0.000000 0.000000 0.000000 0.000000 0.000000 -0.010810 -1.136634 23.138203 -0.655671 1.173634 -0.483874 -3.115139 -20.148544 -14.962934 0.000000 0.000000 0.000000 0.203875 -0.236588 22.992213 -0.980917 0.204168 -0.241716 1.371066 -0.395034 -1.141081 0.000000 0.000000 0.000000
60.465868 74.667793 363.552611 -0.040038 0.282013 -23.136293 0.147627 -0.243600 23.136706 -0.000000 0.000000 0.000000 -0.620883 0.952327 -0.367418 0.000000 0.000000 0.000000 1.250156 1.387308 -0.364928 3.365318 0.344020 -0.742234 -6.427989 0.435909 1.686783 6.721817 -2.171725 -0.682030 0.000000 0.000000 0.000000 0.000000 0.000000 0.000000 0.981068 1.024302 0.163107 -0.696355 -4.789711 -0.203050 5.162155 -3.361990 0.011175 -11.061337 8.846186 2.435479 0.000000 0.000000 0.000000 0.000000 0.000000 0.000000 -0.145376 -1.094408 23.256875 -0.722586 1.102901 -0.492248 -5.996996 -26.530953 -20.972693 0.000000 0.000000 0.000000 0.147627 -0.243600 23.136706 -0.978873 0.200492 -0.240439 1.411372 -0.418397 -1.298643 0.000000 0.000000 0.000000
60.525090 74.639759 363.547220 -0.015811 0.275573 -23.258259 0.123345 -0.246935 23.258563 -0.000000 0.000000 0.000000 -0.695885 1.121297 -0.427703 0.000000 0.000000 0.000000 1.496495 1.398029 -0.380342 3.233126 0.716622 -0.787085 -7.094913 0.313446 1.794384 7.926893 -2.142432 -0.772317 0.000000 0.000000 0.000000 0.000000 0.000000 0.000000 0.918642 0.920680 0.151096 -0.584481 -4.778950 -0.197837 4.809318 -2.981633 0.018244 -9.337769 7.993787 1.826440 0.000000 0.000000 0.000000 0.000000 0.000000 0.000000 -0.233363 -0.979093 23.341694 -1.142290 1.181684 -0.577789 -11.125704 -34.781912 -30.293895 0.000000 0.000000 0.000000 0.123345 -0.246935 23.258563 -0.905505 0.204909 -0.227230 1.376648 -0.447843 -1.454597 0.000000 0.000000 0.000000
60.584937 74.604877 363.540585 -0.010547 0.276643 -23.342837 0.119299 -0.249821 23.343123 -0.000000 0.000000 0.000000 -0.603474 1.097541 -0.410430 0.000000 0.000000 0.000000 1.694473 1.358972 -0.381753 3.046266 0.949353 -0.810204 -6.876924 -0.223740 1.687936 7.347680 -0.304970 -0.829766 0.000000 0.000000 0.000000 0.000000 0.000000 0.000000 0.880733 0.942613 0.148523 -0.481784 -5.047269 -0.205272 4.407688 -1.426751 -0.137300 -8.169269 8.353754 1.489380 0.000000 0.000000 0.000000 0.000000 0.000000 0.000000 0.119299 -0.249821 23.343123 -2.323487 1.024042 -0.665365 -12.326496 -37.292729 -33.256666 0.000000 0.000000 0.000000 0.792637 -0.704333 23.471250 -1.258748 0.887564 -0.320170 1.338325 -0.470193 -1.635274 0.000000 0.000000 0.000000
60.638056 74.574138 363.525384 -0.026762 0.290384 -23.385576 0.139823 -0.255908 23.385956 -0.000000 0.000000 0.000000 -0.431084 0.997148 -0.360648 0.000000 0.000000 0.000000 1.858157 1.369883 -0.392871 2.909223 1.143591 -0.824424 -7.231902 -1.368559 1.451604 8.057347 1.583535 -0.816573 0.000000 0.000000 0.000000 0.000000 0.000000 0.000000 0.786877 0.943364 0.139156 -0.403449 -5.197575 -0.188764 4.649621 -0.386609 -0.338868 -9.655521 6.412457 1.955832 0.000000 0.000000 0.000000 0.000000 0.000000 0.000000 0.139823 -0.255908 23.385956 -2.143934 0.992046 -0.616475 -9.043914 -33.165890 -27.656415 0.000000 0.000000 0.000000 0.835858 -0.767743 23.520600 -0.433988 0.747037 -0.125597 0.553967 -0.296659 -1.994840 0.000000 0.000000 0.000000
60.702266 74.556294 363.512067 -0.047689 0.323211 -23.456814 0.172406 -0.277518 23.457366 -0.000000 0.000000 0.000000 -0.172390 0.916524 -0.307246 0.000000 0.000000 0.000000 1.908539 1.361960 -0.393671 2.929504 1.174078 -0.843035 -7.443379 -1.792273 1.364114 8.366547 3.101025 -0.877096 0.000000 0.000000 0.000000 0.000000 0.000000 0.000000 0.600970 0.969519 0.122053 -0.252719 -5.346469 -0.159176 4.665211 0.946770 -0.549995 -10.084530 7.516611 2.141871 0.000000 0.000000 0.000000 0.000000 0.000000 0.000000 0.172406 -0.277518 23.457366 -1.402483 0.512116 -0.403124 -7.951735 -29.459854 -23.857278 0.000000 0.000000 0.000000 0.878805 -0.831976 23.595983 -0.425446 0.790810 -0.128841 1.830700 1.275306 -4.497602 0.000000 0.000000 0.000000
